# File created by Blade
# Date/Time:  Wed Sep 24 20:15:16 2014
# Frame Rate: 120.000 fps
#------------------------------------------------------
:FULLY-SPECIFIED
:DEGREES
2350
root -6.437911 32.777386 -5.124353 16.095981 3.756499 -2.702546
Spine -20.272923 -0.863846 0.580402
Head -7.755029 -23.122412 15.401053
LeftShoulder -4.844731 18.758800 11.369168
LeftArm 21.423738 31.313094 -73.378833
LeftForeArm -1.943688 -0.000000 20.817583
LeftHand -22.573078 -0.000000 -5.613306
LeftHandThumb1 -26.253704 0.000000 33.147579
RightShoulder -21.884449 12.705414 -17.012868
RightArm -14.343628 37.863453 82.826028
RightForeArm 61.237620 -0.000000 147.701111
RightHand 10.815007 -0.000000 44.082788
RightHandThumb1 -24.326973 -0.000000 -32.862282
LeftUpLeg -13.315294 7.283633 5.591457
LeftLeg 0.371742 -0.000000 -0.000000
LeftFoot -11.484313 6.391668 -18.529011
LeftToeBase 9.600856 -0.000000 -0.000000
RightUpLeg -13.835191 -6.451167 0.595648
RightLeg 3.526675 -0.000000 -0.000000
RightFoot -8.570523 -3.139348 -12.795068
RightToeBase -0.111960 -0.000000 0.000000
2351
root -6.441745 32.777971 -5.123566 16.113885 3.754079 -2.718243
Spine -20.324069 -1.042593 0.564137
Head -7.561051 -23.073625 15.585707
LeftShoulder -4.904126 18.802100 11.377230
LeftArm 21.333381 31.183314 -73.486460
LeftForeArm -1.971271 -0.000000 20.873305
LeftHand -22.623535 -0.000000 -5.502139
LeftHandThumb1 -26.253704 0.000000 33.147579
RightShoulder -22.090532 12.712241 -16.973347
RightArm -14.272917 37.670453 83.027370
RightForeArm 60.926378 0.000000 147.443312
RightHand 10.663141 -0.000000 44.285807
RightHandThumb1 -24.326973 -0.000000 -32.862282
LeftUpLeg -13.307910 7.236523 5.627011
LeftLeg 0.326470 -0.000000 -0.000000
LeftFoot -11.444664 6.435914 -18.678308
LeftToeBase 9.405593 -0.000000 -0.000000
RightUpLeg -13.857109 -6.454941 0.619055
RightLeg 3.532113 -0.000000 -0.000000
RightFoot -8.580867 -3.104489 -12.767464
RightToeBase -0.063818 -0.000000 0.000000
2352
root -6.448662 32.776409 -5.121673 16.108939 3.737948 -2.784553
Spine -20.351610 -1.216254 0.609124
Head -7.361114 -23.027384 15.756256
LeftShoulder -4.963486 18.823077 11.392712
LeftArm 21.203655 31.061974 -73.633980
LeftForeArm -1.968020 -0.000000 20.927695
LeftHand -22.619537 -0.000000 -5.462485
LeftHandThumb1 -26.253704 0.000000 33.147579
RightShoulder -22.237218 12.778514 -16.907810
RightArm -14.328038 37.359746 83.104646
RightForeArm 60.329906 0.000000 146.949736
RightHand 10.723244 -0.000000 43.638690
RightHandThumb1 -24.326973 -0.000000 -32.862282
LeftUpLeg -13.303763 7.271985 5.695570
LeftLeg 0.328072 -0.000000 -0.000000
LeftFoot -11.478185 6.463224 -18.632802
LeftToeBase 9.365310 -0.000000 -0.000000
RightUpLeg -13.859855 -6.421858 0.689407
RightLeg 3.540223 -0.000000 -0.000000
RightFoot -8.554282 -3.102195 -12.765860
RightToeBase -0.121757 -0.000000 0.000000
2353
root -6.454034 32.775283 -5.119894 16.101763 3.695440 -2.841365
Spine -20.376799 -1.391571 0.645972
Head -7.158003 -22.976272 15.909054
LeftShoulder -5.044102 18.896078 11.391507
LeftArm 21.153320 30.986294 -73.711550
LeftForeArm -1.976293 0.000000 20.976217
LeftHand -22.562460 0.000000 -5.523184
LeftHandThumb1 -26.253704 0.000000 33.147579
RightShoulder -22.315856 12.838371 -16.797360
RightArm -14.431215 37.005460 83.137963
RightForeArm 59.833469 -0.000000 146.300203
RightHand 10.772673 -0.000000 42.793458
RightHandThumb1 -24.326973 -0.000000 -32.862282
LeftUpLeg -13.288548 7.347684 5.746894
LeftLeg 0.339794 -0.000000 -0.000000
LeftFoot -11.509604 6.423230 -18.608830
LeftToeBase 9.295012 -0.000000 -0.000000
RightUpLeg -13.864429 -6.373615 0.741959
RightLeg 3.555065 -0.000000 -0.000000
RightFoot -8.549604 -3.078972 -12.753173
RightToeBase -0.146978 -0.000000 0.000000
2354
root -6.453563 32.776568 -5.121370 16.112589 3.619862 -2.853562
Spine -20.416542 -1.565362 0.628801
Head -6.947794 -22.926286 16.066857
LeftShoulder -5.113539 18.917287 11.392241
LeftArm 21.033103 30.903365 -73.822546
LeftForeArm -1.916357 -0.000000 21.035918
LeftHand -22.557078 -0.000000 -5.670599
LeftHandThumb1 -26.253704 0.000000 33.147579
RightShoulder -22.324894 12.911914 -16.621435
RightArm -14.560077 36.692298 83.093151
RightForeArm 59.596719 0.000000 145.553236
RightHand 10.605276 -0.000000 42.337415
RightHandThumb1 -24.326973 -0.000000 -32.862282
LeftUpLeg -13.264002 7.281000 5.764522
LeftLeg 0.289677 -0.000000 -0.000000
LeftFoot -11.526945 6.604531 -18.598097
LeftToeBase 9.307767 -0.000000 -0.000000
RightUpLeg -13.906797 -6.311155 0.736311
RightLeg 3.597698 -0.000000 -0.000000
RightFoot -8.547590 -3.058508 -12.721340
RightToeBase -0.170817 -0.000000 0.000000
2355
root -6.455192 32.775730 -5.122595 16.086521 3.522248 -2.919169
Spine -20.404311 -1.655405 0.665430
Head -6.770085 -22.934982 16.161994
LeftShoulder -5.129759 18.920329 11.397129
LeftArm 20.960919 30.891415 -73.898083
LeftForeArm -1.943541 -0.000000 21.066579
LeftHand -22.596403 -0.000000 -5.658578
LeftHandThumb1 -26.253704 0.000000 33.147579
RightShoulder -22.250783 12.948868 -16.431002
RightArm -14.759182 36.427416 82.987809
RightForeArm 59.316133 -0.000000 144.894550
RightHand 10.450273 -0.000000 41.987562
RightHandThumb1 -24.326973 -0.000000 -32.862282
LeftUpLeg -13.218224 7.305637 5.830202
LeftLeg 0.297797 -0.000000 -0.000000
LeftFoot -11.626111 6.640483 -18.501771
LeftToeBase 9.465906 -0.000000 -0.000000
RightUpLeg -13.904630 -6.197384 0.770863
RightLeg 3.619059 -0.000000 -0.000000
RightFoot -8.530910 -3.050670 -12.717999
RightToeBase -0.168451 -0.000000 0.000000
2356
root -6.458182 32.774736 -5.123194 16.049167 3.395452 -2.977956
Spine -20.369366 -1.679785 0.667643
Head -6.627246 -22.972853 16.271939
LeftShoulder -5.135347 18.908142 11.408373
LeftArm 20.977156 30.994617 -73.873941
LeftForeArm -2.064159 -0.000000 21.043681
LeftHand -22.599781 -0.000000 -5.640726
LeftHandThumb1 -26.253704 0.000000 33.147579
RightShoulder -22.161689 12.952255 -16.209941
RightArm -14.912966 36.189004 82.846804
RightForeArm 58.881751 0.000000 144.438047
RightHand 10.438424 -0.000000 41.598457
RightHandThumb1 -24.326973 -0.000000 -32.862282
LeftUpLeg -13.156545 7.337452 5.891120
LeftLeg 0.305805 -0.000000 -0.000000
LeftFoot -11.711157 6.703470 -18.726583
LeftToeBase 9.461729 -0.000000 -0.000000
RightUpLeg -13.893206 -6.066200 0.795289
RightLeg 3.640885 -0.000000 -0.000000
RightFoot -8.526359 -3.027817 -12.660270
RightToeBase -0.139699 -0.000000 0.000000
2357
root -6.459026 32.773694 -5.123972 16.014353 3.258796 -3.027969
Spine -20.337134 -1.673775 0.667775
Head -6.499562 -23.032217 16.342010
LeftShoulder -5.138835 18.886544 11.423720
LeftArm 21.051463 31.177298 -73.805670
LeftForeArm -2.183803 0.000000 20.946785
LeftHand -22.427036 -0.000000 -5.747434
LeftHandThumb1 -26.253704 0.000000 33.147579
RightShoulder -22.037720 12.910830 -15.978205
RightArm -15.058266 36.108848 82.705937
RightForeArm 58.877170 -0.000000 144.114951
RightHand 10.221393 -0.000000 41.775410
RightHandThumb1 -24.326973 -0.000000 -32.862282
LeftUpLeg -13.102389 7.380488 5.930902
LeftLeg 0.326078 -0.000000 -0.000000
LeftFoot -11.759595 6.806280 -18.623650
LeftToeBase 9.334369 -0.000000 -0.000000
RightUpLeg -13.887792 -5.969372 0.815607
RightLeg 3.663533 -0.000000 -0.000000
RightFoot -8.530917 -2.965676 -12.633729
RightToeBase -0.138917 -0.000000 0.000000
2358
root -6.460187 32.772327 -5.127149 15.990703 3.109243 -3.067043
Spine -20.299646 -1.608664 0.634898
Head -6.427033 -23.112375 16.397136
LeftShoulder -5.111266 18.820518 11.457478
LeftArm 21.138045 31.409841 -73.708024
LeftForeArm -2.333900 -0.000000 20.856337
LeftHand -22.435771 -0.000000 -5.771409
LeftHandThumb1 -26.253704 0.000000 33.147579
RightShoulder -21.925629 12.842027 -15.720766
RightArm -15.132473 36.074931 82.563083
RightForeArm 58.836905 -0.000000 144.026419
RightHand 10.139183 -0.000000 42.134451
RightHandThumb1 -24.326973 -0.000000 -32.862282
LeftUpLeg -13.062075 7.395330 5.968153
LeftLeg 0.354674 -0.000000 -0.000000
LeftFoot -11.876416 6.904719 -18.717104
LeftToeBase 9.454768 -0.000000 -0.000000
RightUpLeg -13.904678 -5.887245 0.829205
RightLeg 3.699073 -0.000000 -0.000000
RightFoot -8.545432 -2.895176 -12.648267
RightToeBase -0.075996 -0.000000 0.000000
2359
root -6.460083 32.771380 -5.132576 15.975816 2.954081 -3.087737
Spine -20.259525 -1.503472 0.587460
Head -6.400276 -23.180564 16.422103
LeftShoulder -5.061683 18.727590 11.482638
LeftArm 21.241064 31.669588 -73.590292
LeftForeArm -2.451662 -0.000000 20.740582
LeftHand -22.423598 0.000000 -5.885459
LeftHandThumb1 -26.253704 0.000000 33.147579
RightShoulder -21.826465 12.795661 -15.506587
RightArm -15.230855 36.066584 82.428029
RightForeArm 58.854802 -0.000000 144.138246
RightHand 10.079772 -0.000000 42.688623
RightHandThumb1 -24.326973 -0.000000 -32.862282
LeftUpLeg -13.041678 7.407140 5.974975
LeftLeg 0.384718 -0.000000 -0.000000
LeftFoot -11.975576 7.072514 -18.556262
LeftToeBase 9.543585 -0.000000 -0.000000
RightUpLeg -13.933983 -5.801512 0.821368
RightLeg 3.735698 -0.000000 -0.000000
RightFoot -8.572397 -2.820611 -12.602075
RightToeBase -0.072833 -0.000000 0.000000
2360
root -6.459586 32.769605 -5.138387 15.963891 2.790481 -3.108949
Spine -20.212895 -1.351769 0.536436
Head -6.421859 -23.262975 16.423832
LeftShoulder -5.010466 18.633045 11.513809
LeftArm 21.399942 31.966624 -73.443811
LeftForeArm -2.497198 -0.000000 20.600270
LeftHand -22.459161 -0.000000 -6.241685
LeftHandThumb1 -26.253704 0.000000 33.147579
RightShoulder -21.764716 12.760715 -15.354711
RightArm -15.307925 36.101316 82.319834
RightForeArm 59.119683 -0.000000 144.352215
RightHand 9.914799 -0.000000 43.436446
RightHandThumb1 -24.326973 -0.000000 -32.862282
LeftUpLeg -13.027267 7.440561 5.986475
LeftLeg 0.450615 -0.000000 -0.000000
LeftFoot -12.066048 7.134368 -18.723108
LeftToeBase 9.482512 -0.000000 -0.000000
RightUpLeg -13.973459 -5.718125 0.815303
RightLeg 3.791024 -0.000000 -0.000000
RightFoot -8.581783 -2.782892 -12.698672
RightToeBase -0.101820 -0.000000 0.000000
2361
root -6.457875 32.768398 -5.144564 15.963794 2.648104 -3.118705
Spine -20.177359 -1.220604 0.495563
Head -6.459571 -23.312419 16.398274
LeftShoulder -4.984888 18.534727 11.540569
LeftArm 21.546345 32.245179 -73.312752
LeftForeArm -2.494317 -0.000000 20.491781
LeftHand -22.428321 -0.000000 -6.331076
LeftHandThumb1 -26.253704 0.000000 33.147579
RightShoulder -21.740061 12.724403 -15.251660
RightArm -15.298321 36.098869 82.279421
RightForeArm 59.314811 -0.000000 144.652429
RightHand 9.737636 -0.000000 44.117981
RightHandThumb1 -24.326973 -0.000000 -32.862282
LeftUpLeg -13.029142 7.439181 5.987595
LeftLeg 0.502770 -0.000000 -0.000000
LeftFoot -12.147199 7.247437 -18.739722
LeftToeBase 9.455532 -0.000000 -0.000000
RightUpLeg -14.013705 -5.669838 0.805214
RightLeg 3.819892 -0.000000 -0.000000
RightFoot -8.607159 -2.699228 -12.707097
RightToeBase -0.073700 -0.000000 0.000000
